<mxfile host="app.diagrams.net" modified="2021-05-15T08:03:08.580Z" agent="5.0 (Windows NT 10.0; Win64; x64) AppleWebKit/537.36 (KHTML, like Gecko) Chrome/90.0.4430.93 Safari/537.36" etag="wOwyFrFkFySxciSDSPWo" version="14.6.13" type="github">
  <diagram id="STR4GGFviTTkDKQemvLC" name="Page-1">
    <mxGraphModel dx="1108" dy="482" grid="1" gridSize="10" guides="1" tooltips="1" connect="1" arrows="1" fold="1" page="1" pageScale="1" pageWidth="827" pageHeight="1169" math="0" shadow="0">
      <root>
        <mxCell id="0" />
        <mxCell id="1" parent="0" />
        <mxCell id="73V-x_rOOre6qfoeKqHC-1" value="Users" style="shape=actor;whiteSpace=wrap;html=1;labelPosition=center;verticalLabelPosition=bottom;align=center;verticalAlign=top;" vertex="1" parent="1">
          <mxGeometry x="20" y="90" width="40" height="60" as="geometry" />
        </mxCell>
        <mxCell id="73V-x_rOOre6qfoeKqHC-2" value="" style="swimlane;startSize=0;spacingTop=4;spacingLeft=4;spacingBottom=4;spacingRight=4;" vertex="1" parent="1">
          <mxGeometry x="530" width="920" height="510" as="geometry">
            <mxRectangle x="220" y="-20" width="50" height="40" as="alternateBounds" />
          </mxGeometry>
        </mxCell>
        <mxCell id="73V-x_rOOre6qfoeKqHC-3" value="&lt;b&gt;GCP PROJECT&lt;/b&gt;" style="text;html=1;resizable=0;autosize=1;align=center;verticalAlign=middle;points=[];fillColor=none;strokeColor=none;rounded=0;labelBorderColor=none;fontSize=16;" vertex="1" parent="73V-x_rOOre6qfoeKqHC-2">
          <mxGeometry x="230" y="10" width="130" height="20" as="geometry" />
        </mxCell>
        <mxCell id="73V-x_rOOre6qfoeKqHC-6" value="&lt;font style=&quot;font-size: 14px&quot;&gt;Firestore&lt;/font&gt;" style="shape=cylinder3;whiteSpace=wrap;html=1;boundedLbl=1;backgroundOutline=1;size=15;fontSize=16;labelPosition=center;verticalLabelPosition=bottom;align=center;verticalAlign=top;" vertex="1" parent="73V-x_rOOre6qfoeKqHC-2">
          <mxGeometry x="120" y="350" width="60" height="80" as="geometry" />
        </mxCell>
        <mxCell id="73V-x_rOOre6qfoeKqHC-7" value="APP ENGINE" style="rounded=1;whiteSpace=wrap;html=1;fontSize=16;" vertex="1" parent="73V-x_rOOre6qfoeKqHC-2">
          <mxGeometry x="71" y="140" width="120" height="60" as="geometry" />
        </mxCell>
        <mxCell id="73V-x_rOOre6qfoeKqHC-8" value="&lt;font style=&quot;font-size: 14px&quot;&gt;Cloud Storage&lt;/font&gt;" style="shape=cylinder3;whiteSpace=wrap;html=1;boundedLbl=1;backgroundOutline=1;size=15;fontSize=16;labelPosition=center;verticalLabelPosition=bottom;align=center;verticalAlign=top;" vertex="1" parent="73V-x_rOOre6qfoeKqHC-2">
          <mxGeometry x="650" y="350" width="60" height="80" as="geometry" />
        </mxCell>
        <mxCell id="73V-x_rOOre6qfoeKqHC-29" value="ML APP" style="rounded=1;whiteSpace=wrap;html=1;fontSize=16;" vertex="1" parent="73V-x_rOOre6qfoeKqHC-2">
          <mxGeometry x="600" y="140" width="120" height="61" as="geometry" />
        </mxCell>
        <mxCell id="73V-x_rOOre6qfoeKqHC-33" value="ML APP" style="rounded=1;whiteSpace=wrap;html=1;fontSize=16;" vertex="1" parent="73V-x_rOOre6qfoeKqHC-2">
          <mxGeometry x="610" y="150" width="120" height="61" as="geometry" />
        </mxCell>
        <mxCell id="73V-x_rOOre6qfoeKqHC-34" value="ML APP" style="rounded=1;whiteSpace=wrap;html=1;fontSize=16;" vertex="1" parent="73V-x_rOOre6qfoeKqHC-2">
          <mxGeometry x="620" y="160" width="120" height="61" as="geometry" />
        </mxCell>
        <mxCell id="73V-x_rOOre6qfoeKqHC-35" value="" style="endArrow=classic;startArrow=classic;html=1;fontSize=16;entryX=0.5;entryY=1;entryDx=0;entryDy=0;exitX=0.5;exitY=0;exitDx=0;exitDy=0;exitPerimeter=0;" edge="1" parent="73V-x_rOOre6qfoeKqHC-2" source="73V-x_rOOre6qfoeKqHC-8" target="73V-x_rOOre6qfoeKqHC-34">
          <mxGeometry width="50" height="50" relative="1" as="geometry">
            <mxPoint x="680" y="290" as="sourcePoint" />
            <mxPoint x="480" y="160" as="targetPoint" />
            <Array as="points" />
          </mxGeometry>
        </mxCell>
        <mxCell id="73V-x_rOOre6qfoeKqHC-43" value="&lt;div style=&quot;text-align: left&quot;&gt;&lt;ul&gt;&lt;li&gt;&lt;span style=&quot;font-size: 12px&quot;&gt;No External IP&amp;nbsp;&lt;/span&gt;&lt;/li&gt;&lt;li&gt;&lt;span style=&quot;font-size: 12px&quot;&gt;Internal Load Balancer&lt;/span&gt;&lt;/li&gt;&lt;li&gt;&lt;span style=&quot;font-size: 12px&quot;&gt;VPC Network&lt;/span&gt;&lt;/li&gt;&lt;li&gt;&lt;span style=&quot;font-size: 12px&quot;&gt;Subnet-b&lt;/span&gt;&lt;/li&gt;&lt;/ul&gt;&lt;/div&gt;" style="text;html=1;align=center;verticalAlign=middle;resizable=0;points=[];autosize=1;strokeColor=none;fontSize=16;" vertex="1" parent="73V-x_rOOre6qfoeKqHC-2">
          <mxGeometry x="710" y="115" width="180" height="120" as="geometry" />
        </mxCell>
        <mxCell id="73V-x_rOOre6qfoeKqHC-44" value="&lt;ul&gt;&lt;li style=&quot;text-align: left&quot;&gt;&lt;font style=&quot;font-size: 12px&quot;&gt;External IP&amp;nbsp;&lt;/font&gt;&lt;/li&gt;&lt;li style=&quot;text-align: left&quot;&gt;&lt;span style=&quot;font-size: 12px&quot;&gt;HTTPS Load Balancer&lt;/span&gt;&lt;/li&gt;&lt;li style=&quot;text-align: left&quot;&gt;&lt;span style=&quot;font-size: 12px&quot;&gt;VPC Network&amp;nbsp;&lt;/span&gt;&lt;/li&gt;&lt;li style=&quot;text-align: left&quot;&gt;&lt;span style=&quot;font-size: 12px&quot;&gt;Subnet-a&lt;/span&gt;&lt;/li&gt;&lt;/ul&gt;" style="text;html=1;align=center;verticalAlign=middle;resizable=0;points=[];autosize=1;strokeColor=none;fontSize=16;" vertex="1" parent="73V-x_rOOre6qfoeKqHC-2">
          <mxGeometry x="190" y="85" width="180" height="120" as="geometry" />
        </mxCell>
        <mxCell id="73V-x_rOOre6qfoeKqHC-10" value="INTERNET" style="ellipse;shape=cloud;whiteSpace=wrap;html=1;fontSize=16;" vertex="1" parent="1">
          <mxGeometry x="210" y="150.5" width="120" height="80" as="geometry" />
        </mxCell>
        <mxCell id="73V-x_rOOre6qfoeKqHC-31" value="APP ENGINE" style="rounded=1;whiteSpace=wrap;html=1;fontSize=16;" vertex="1" parent="1">
          <mxGeometry x="611" y="150" width="120" height="60" as="geometry" />
        </mxCell>
        <mxCell id="73V-x_rOOre6qfoeKqHC-32" value="APP ENGINE" style="rounded=1;whiteSpace=wrap;html=1;fontSize=16;" vertex="1" parent="1">
          <mxGeometry x="621" y="160" width="120" height="60" as="geometry" />
        </mxCell>
        <mxCell id="73V-x_rOOre6qfoeKqHC-37" value="" style="endArrow=classic;startArrow=classic;html=1;fontSize=16;entryX=0;entryY=0.5;entryDx=0;entryDy=0;exitX=1;exitY=0.5;exitDx=0;exitDy=0;" edge="1" parent="1" source="73V-x_rOOre6qfoeKqHC-32" target="73V-x_rOOre6qfoeKqHC-34">
          <mxGeometry width="50" height="50" relative="1" as="geometry">
            <mxPoint x="740" y="410" as="sourcePoint" />
            <mxPoint x="790" y="360" as="targetPoint" />
          </mxGeometry>
        </mxCell>
        <mxCell id="73V-x_rOOre6qfoeKqHC-38" value="" style="endArrow=classic;html=1;fontSize=16;entryX=0;entryY=0.5;entryDx=0;entryDy=0;exitX=0.875;exitY=0.5;exitDx=0;exitDy=0;exitPerimeter=0;" edge="1" parent="1" source="73V-x_rOOre6qfoeKqHC-10" target="73V-x_rOOre6qfoeKqHC-32">
          <mxGeometry width="50" height="50" relative="1" as="geometry">
            <mxPoint x="350" y="190" as="sourcePoint" />
            <mxPoint x="380" y="260" as="targetPoint" />
          </mxGeometry>
        </mxCell>
        <mxCell id="73V-x_rOOre6qfoeKqHC-40" value="" style="endArrow=classic;html=1;fontSize=16;exitX=0.5;exitY=1;exitDx=0;exitDy=0;" edge="1" parent="1" source="73V-x_rOOre6qfoeKqHC-1">
          <mxGeometry width="50" height="50" relative="1" as="geometry">
            <mxPoint x="330" y="310" as="sourcePoint" />
            <mxPoint x="220" y="180" as="targetPoint" />
          </mxGeometry>
        </mxCell>
        <mxCell id="73V-x_rOOre6qfoeKqHC-36" value="" style="endArrow=classic;startArrow=classic;html=1;fontSize=16;exitX=0.5;exitY=0;exitDx=0;exitDy=0;exitPerimeter=0;entryX=0.5;entryY=1;entryDx=0;entryDy=0;" edge="1" parent="1" source="73V-x_rOOre6qfoeKqHC-6" target="73V-x_rOOre6qfoeKqHC-32">
          <mxGeometry width="50" height="50" relative="1" as="geometry">
            <mxPoint x="683.5" y="290" as="sourcePoint" />
            <mxPoint x="670" y="230" as="targetPoint" />
            <Array as="points" />
          </mxGeometry>
        </mxCell>
      </root>
    </mxGraphModel>
  </diagram>
</mxfile>
